<?xml version="1.0" encoding="utf-8"?>
<!-- Generator: Adobe Illustrator 24.2.1, SVG Export Plug-In . SVG Version: 6.00 Build 0)  -->
<svg version="1.1" id="Capa_1" xmlns="http://www.w3.org/2000/svg" xmlns:xlink="http://www.w3.org/1999/xlink" x="0px" y="0px"
	 viewBox="0 0 149.2 75.8" style="enable-background:new 0 0 149.2 75.8;" xml:space="preserve">
<style type="text/css">
	.st0{clip-path:url(#SVGID_2_);}
	.st1{clip-path:url(#SVGID_4_);fill:#FEFEFE;}
	.st2{clip-path:url(#SVGID_6_);}
	.st3{clip-path:url(#SVGID_8_);fill:#FEFEFE;}
	.st4{clip-path:url(#SVGID_10_);}
	.st5{clip-path:url(#SVGID_12_);fill:#FEFEFE;}
	.st6{clip-path:url(#SVGID_14_);}
	.st7{clip-path:url(#SVGID_16_);fill:#FEFEFE;}
	.st8{clip-path:url(#SVGID_18_);}
	.st9{clip-path:url(#SVGID_20_);fill:#FEFEFE;}
	.st10{clip-path:url(#SVGID_22_);}
	.st11{clip-path:url(#SVGID_24_);fill:#FEFEFE;}
	.st12{clip-path:url(#SVGID_26_);}
	.st13{clip-path:url(#SVGID_28_);fill:#FEFEFE;}
	.st14{clip-path:url(#SVGID_30_);}
	.st15{clip-path:url(#SVGID_32_);fill:#FEFEFE;}
	.st16{clip-path:url(#SVGID_34_);}
	.st17{clip-path:url(#SVGID_36_);fill:#FEFEFE;}
	.st18{clip-path:url(#SVGID_38_);}
	.st19{clip-path:url(#SVGID_40_);fill:#FEFEFE;}
	.st20{clip-path:url(#SVGID_42_);}
	.st21{clip-path:url(#SVGID_44_);fill:#FEFEFE;}
	.st22{clip-path:url(#SVGID_46_);}
	.st23{clip-path:url(#SVGID_48_);fill:#FEFEFE;}
	.st24{clip-path:url(#SVGID_50_);}
	.st25{clip-path:url(#SVGID_52_);fill:#FEFEFE;}
	.st26{clip-path:url(#SVGID_54_);}
	.st27{clip-path:url(#SVGID_56_);enable-background:new    ;}
	.st28{clip-path:url(#SVGID_58_);}
	.st29{clip-path:url(#SVGID_60_);}
	.st30{clip-path:url(#SVGID_62_);fill:#FEFEFE;}
	.st31{clip-path:url(#SVGID_64_);}
	.st32{clip-path:url(#SVGID_66_);fill:#FEFEFE;}
	.st33{clip-path:url(#SVGID_68_);}
	.st34{clip-path:url(#SVGID_70_);fill:#FEFEFE;}
	.st35{clip-path:url(#SVGID_72_);}
	.st36{clip-path:url(#SVGID_74_);fill:#FEFEFE;}
	.st37{clip-path:url(#SVGID_76_);}
	.st38{clip-path:url(#SVGID_78_);fill:#FEFEFE;}
</style>
<g>
	<defs>
		<polygon id="SVGID_1_" points="6.9,10.7 25.9,37.8 6.9,64.9 34.8,64.9 49.8,43.6 43.2,43.6 32,59.6 17.2,59.6 32.4,37.8 
			17.2,16.1 32,16.1 43.1,31.9 49.6,31.9 34.8,10.7 		"/>
	</defs>
	<clipPath id="SVGID_2_">
		<use xlink:href="#SVGID_1_"  style="overflow:visible;"/>
	</clipPath>
	<g class="st0">
		<defs>
			<rect id="SVGID_3_" x="-59.1" y="-12.3" width="1400" height="5181"/>
		</defs>
		<clipPath id="SVGID_4_">
			<use xlink:href="#SVGID_3_"  style="overflow:visible;"/>
		</clipPath>
		<rect x="1.9" y="5.7" class="st1" width="52.9" height="64.2"/>
	</g>
</g>
<g>
	<defs>
		<polygon id="SVGID_5_" points="38.9,57.3 22.4,57.3 36.1,37.8 22.4,18.3 38.9,18.3 38.9,23.7 32.7,23.7 42.6,37.8 32.7,51.9 
			38.9,51.9 		"/>
	</defs>
	<clipPath id="SVGID_6_">
		<use xlink:href="#SVGID_5_"  style="overflow:visible;"/>
	</clipPath>
	<g class="st2">
		<defs>
			<rect id="SVGID_7_" x="-59.1" y="-12.3" width="1400" height="5181"/>
		</defs>
		<clipPath id="SVGID_8_">
			<use xlink:href="#SVGID_7_"  style="overflow:visible;"/>
		</clipPath>
		<rect x="17.4" y="13.3" class="st3" width="30.2" height="48.9"/>
	</g>
</g>
<g>
	<defs>
		<polygon id="SVGID_9_" points="66.2,10.7 62.5,16.1 74,16 77.8,10.7 		"/>
	</defs>
	<clipPath id="SVGID_10_">
		<use xlink:href="#SVGID_9_"  style="overflow:visible;"/>
	</clipPath>
	<g class="st4">
		<defs>
			<rect id="SVGID_11_" x="-59.1" y="-12.3" width="1400" height="5181"/>
		</defs>
		<clipPath id="SVGID_12_">
			<use xlink:href="#SVGID_11_"  style="overflow:visible;"/>
		</clipPath>
		<rect x="57.5" y="5.7" class="st5" width="25.3" height="15.4"/>
	</g>
</g>
<g>
	<defs>
		<polygon id="SVGID_13_" points="63.8,23.7 67.5,18.4 60.9,18.4 57.2,23.7 		"/>
	</defs>
	<clipPath id="SVGID_14_">
		<use xlink:href="#SVGID_13_"  style="overflow:visible;"/>
	</clipPath>
	<g class="st6">
		<defs>
			<rect id="SVGID_15_" x="-59.1" y="-12.3" width="1400" height="5181"/>
		</defs>
		<clipPath id="SVGID_16_">
			<use xlink:href="#SVGID_15_"  style="overflow:visible;"/>
		</clipPath>
		<rect x="52.2" y="13.4" class="st7" width="20.3" height="15.4"/>
	</g>
</g>
<g>
	<defs>
		<polygon id="SVGID_17_" points="66,64.9 77.6,64.9 73.8,59.6 62.3,59.5 		"/>
	</defs>
	<clipPath id="SVGID_18_">
		<use xlink:href="#SVGID_17_"  style="overflow:visible;"/>
	</clipPath>
	<g class="st8">
		<defs>
			<rect id="SVGID_19_" x="-59.1" y="-12.3" width="1400" height="5181"/>
		</defs>
		<clipPath id="SVGID_20_">
			<use xlink:href="#SVGID_19_"  style="overflow:visible;"/>
		</clipPath>
		<rect x="57.3" y="54.5" class="st9" width="25.3" height="15.4"/>
	</g>
</g>
<g>
	<defs>
		<polygon id="SVGID_21_" points="63.6,51.9 67.3,57.2 60.7,57.2 57,51.9 		"/>
	</defs>
	<clipPath id="SVGID_22_">
		<use xlink:href="#SVGID_21_"  style="overflow:visible;"/>
	</clipPath>
	<g class="st10">
		<defs>
			<rect id="SVGID_23_" x="-59.1" y="-12.3" width="1400" height="5181"/>
		</defs>
		<clipPath id="SVGID_24_">
			<use xlink:href="#SVGID_23_"  style="overflow:visible;"/>
		</clipPath>
		<rect x="52" y="46.9" class="st11" width="20.3" height="15.4"/>
	</g>
</g>
<g>
	<defs>
		<path id="SVGID_25_" d="M70.7,35.8c0,5.6-3,8.8-8.6,8.8c-1.1,0-2-0.1-2.8-0.3v4.4h-3.5V28.3c1.6-0.5,4-0.9,6.1-0.9
			C67.9,27.4,70.7,30.5,70.7,35.8 M67.1,36c0-3.4-1.6-5.6-5.5-5.6c-0.8,0-1.6,0.1-2.3,0.2v10.6c0.9,0.2,1.7,0.3,2.6,0.3
			C65.4,41.6,67.1,39.6,67.1,36"/>
	</defs>
	<clipPath id="SVGID_26_">
		<use xlink:href="#SVGID_25_"  style="overflow:visible;"/>
	</clipPath>
	<g class="st12">
		<defs>
			<rect id="SVGID_27_" x="-59.1" y="-12.3" width="1400" height="5181"/>
		</defs>
		<clipPath id="SVGID_28_">
			<use xlink:href="#SVGID_27_"  style="overflow:visible;"/>
		</clipPath>
		<rect x="50.8" y="22.4" class="st13" width="24.8" height="31.2"/>
	</g>
</g>
<g>
	<defs>
		<path id="SVGID_29_" d="M87.3,37.4H76.2c0.4,2.8,2.1,4.2,5.2,4.2c1.9,0,3.8-0.4,5.6-1.2c-0.1,0.9-0.3,2.1-0.5,3.2
			c-1.6,0.7-3.3,1-5.1,1c-5.8,0-8.7-3.2-8.7-8.7c0-4.7,2.2-8.5,7.7-8.5c5,0,7.1,3.3,7.1,7.3C87.5,35.7,87.5,36.5,87.3,37.4
			 M76.2,34.5H84c0-2.6-1.4-4.1-3.8-4.1C77.7,30.3,76.4,31.8,76.2,34.5"/>
	</defs>
	<clipPath id="SVGID_30_">
		<use xlink:href="#SVGID_29_"  style="overflow:visible;"/>
	</clipPath>
	<g class="st14">
		<defs>
			<rect id="SVGID_31_" x="-59.1" y="-12.3" width="1400" height="5181"/>
		</defs>
		<clipPath id="SVGID_32_">
			<use xlink:href="#SVGID_31_"  style="overflow:visible;"/>
		</clipPath>
		<rect x="67.7" y="22.4" class="st15" width="24.9" height="27.1"/>
	</g>
</g>
<g>
	<defs>
		<path id="SVGID_33_" d="M99.6,27.5c0,1-0.1,2.3-0.3,3c-0.8-0.1-1.6-0.1-2.6-0.1c-0.9,0-1.7,0.1-2.6,0.2v13.6h-3.5V28.3
			c1.5-0.5,4-0.9,6-0.9C97.6,27.4,98.8,27.5,99.6,27.5"/>
	</defs>
	<clipPath id="SVGID_34_">
		<use xlink:href="#SVGID_33_"  style="overflow:visible;"/>
	</clipPath>
	<g class="st16">
		<defs>
			<rect id="SVGID_35_" x="-59.1" y="-12.3" width="1400" height="5181"/>
		</defs>
		<clipPath id="SVGID_36_">
			<use xlink:href="#SVGID_35_"  style="overflow:visible;"/>
		</clipPath>
		<rect x="85.6" y="22.4" class="st17" width="19" height="26.8"/>
	</g>
</g>
<g>
	<defs>
		<path id="SVGID_37_" d="M108,41.6c1,0,2-0.2,2.7-0.5c-0.1,1-0.2,2-0.4,3c-1,0.4-2,0.5-2.9,0.5c-3.4,0-5.6-1.6-5.6-5.4V22.5
			c1.1-0.3,2.4-0.5,3.5-0.5v6h5.5c-0.1,1.1-0.2,2.1-0.3,3h-5.2v7.8C105.3,40.8,106.3,41.6,108,41.6"/>
	</defs>
	<clipPath id="SVGID_38_">
		<use xlink:href="#SVGID_37_"  style="overflow:visible;"/>
	</clipPath>
	<g class="st18">
		<defs>
			<rect id="SVGID_39_" x="-59.1" y="-12.3" width="1400" height="5181"/>
		</defs>
		<clipPath id="SVGID_40_">
			<use xlink:href="#SVGID_39_"  style="overflow:visible;"/>
		</clipPath>
		<rect x="96.8" y="17" class="st19" width="19" height="32.6"/>
	</g>
</g>
<g>
	<defs>
		<path id="SVGID_41_" d="M127.2,27.8v16.4H124l-0.2-2.1c-1.1,1.4-2.6,2.4-4.8,2.4c-3.8,0-5.9-2-5.9-6.1V27.8h3.5v9.9
			c0,2.7,0.9,3.9,3.6,3.9c1.3,0,2.5-0.4,3.5-1.3V27.8H127.2z"/>
	</defs>
	<clipPath id="SVGID_42_">
		<use xlink:href="#SVGID_41_"  style="overflow:visible;"/>
	</clipPath>
	<g class="st20">
		<defs>
			<rect id="SVGID_43_" x="-59.1" y="-12.3" width="1400" height="5181"/>
		</defs>
		<clipPath id="SVGID_44_">
			<use xlink:href="#SVGID_43_"  style="overflow:visible;"/>
		</clipPath>
		<rect x="108.2" y="22.8" class="st21" width="24.1" height="26.8"/>
	</g>
</g>
<g>
	<defs>
		<path id="SVGID_45_" d="M130.2,43.5c0.1-1.3,0.2-2.2,0.5-3c1.5,0.7,3.5,1.1,5,1.1c2,0,3.1-0.5,3.1-1.9c0-1.2-1-1.7-2.5-2.1
			l-1.6-0.5c-3.2-1-4.3-2.7-4.3-5c0-2.9,2.1-4.7,6.1-4.7c2,0,3.7,0.2,5.2,0.8c-0.1,0.9-0.2,1.8-0.5,2.8c-1.5-0.5-2.9-0.7-4.6-0.7
			c-2.2,0-2.8,0.7-2.8,1.7c0,1.2,0.8,1.7,2.5,2.3l1.7,0.5c3,1,4.3,2.3,4.3,4.9c0,2.9-2.3,4.9-6.5,4.9
			C133.5,44.6,131.7,44.2,130.2,43.5"/>
	</defs>
	<clipPath id="SVGID_46_">
		<use xlink:href="#SVGID_45_"  style="overflow:visible;"/>
	</clipPath>
	<g class="st22">
		<defs>
			<rect id="SVGID_47_" x="-59.1" y="-12.3" width="1400" height="5181"/>
		</defs>
		<clipPath id="SVGID_48_">
			<use xlink:href="#SVGID_47_"  style="overflow:visible;"/>
		</clipPath>
		<rect x="125.2" y="22.4" class="st23" width="22.1" height="27.1"/>
	</g>
</g>
<g>
	<defs>
		<path id="SVGID_49_" d="M101.4,49.1c0.4-0.1,1.1-0.3,1.6-0.3v16.1h-1.6V49.1z"/>
	</defs>
	<clipPath id="SVGID_50_">
		<use xlink:href="#SVGID_49_"  style="overflow:visible;"/>
	</clipPath>
	<g class="st24">
		<defs>
			<rect id="SVGID_51_" x="-59.1" y="-12.3" width="1400" height="5181"/>
		</defs>
		<clipPath id="SVGID_52_">
			<use xlink:href="#SVGID_51_"  style="overflow:visible;"/>
		</clipPath>
		<rect x="96.4" y="43.8" class="st25" width="11.6" height="26.1"/>
	</g>
</g>
<g>
	<defs>
		<rect id="SVGID_53_" x="105.5" y="52.7" width="10.1" height="12.5"/>
	</defs>
	<clipPath id="SVGID_54_">
		<use xlink:href="#SVGID_53_"  style="overflow:visible;"/>
	</clipPath>
	<g class="st26">
		<defs>
			<rect id="SVGID_55_" x="-59.1" y="-12.3" width="1400" height="5181"/>
		</defs>
		<clipPath id="SVGID_56_">
			<use xlink:href="#SVGID_55_"  style="overflow:visible;"/>
		</clipPath>
		<g class="st27">
			<g>
				<defs>
					<rect id="SVGID_57_" x="104.9" y="52.7" width="11" height="13"/>
				</defs>
				<clipPath id="SVGID_58_">
					<use xlink:href="#SVGID_57_"  style="overflow:visible;"/>
				</clipPath>
				<g class="st28">
					<defs>
						<path id="SVGID_59_" d="M115.5,53.4v11.6H114l-0.1-1.2c-0.8,0.9-1.9,1.5-3.5,1.5c-3.1,0-5.1-2.3-5.1-6.1c0-4.1,2-6.3,6.1-6.3
							C113,52.7,114.3,53,115.5,53.4 M113.9,62.7v-8.3c-0.7-0.2-1.5-0.3-2.4-0.3c-3.1,0-4.5,1.8-4.5,4.9c0,2.9,1.2,4.8,3.9,4.8
							C112.2,63.9,113.1,63.4,113.9,62.7"/>
					</defs>
					<clipPath id="SVGID_60_">
						<use xlink:href="#SVGID_59_"  style="overflow:visible;"/>
					</clipPath>
					<g class="st29">
						<defs>
							<rect id="SVGID_61_" x="104.9" y="52.7" width="11" height="13"/>
						</defs>
						<clipPath id="SVGID_62_">
							<use xlink:href="#SVGID_61_"  style="overflow:visible;"/>
						</clipPath>
						<rect x="100.5" y="47.7" class="st30" width="20.1" height="22.5"/>
					</g>
				</g>
			</g>
		</g>
	</g>
</g>
<g>
	<defs>
		<path id="SVGID_63_" d="M128.7,58.9c0,4-2.1,6.3-6.2,6.3c-1.5,0-2.8-0.2-3.9-0.6V49.1c0.5-0.2,1.1-0.3,1.6-0.3v4.5
			c0.9-0.4,1.8-0.6,2.8-0.6C126.8,52.7,128.7,55,128.7,58.9 M127.1,58.9c0-2.9-1.2-4.8-4.2-4.8c-0.9,0-1.8,0.2-2.6,0.5v8.8
			c0.8,0.2,1.6,0.4,2.5,0.4C125.6,63.8,127.1,62.1,127.1,58.9"/>
	</defs>
	<clipPath id="SVGID_64_">
		<use xlink:href="#SVGID_63_"  style="overflow:visible;"/>
	</clipPath>
	<g class="st31">
		<defs>
			<rect id="SVGID_65_" x="-59.1" y="-12.3" width="1400" height="5181"/>
		</defs>
		<clipPath id="SVGID_66_">
			<use xlink:href="#SVGID_65_"  style="overflow:visible;"/>
		</clipPath>
		<rect x="113.6" y="43.8" class="st32" width="20.1" height="26.4"/>
	</g>
</g>
<g>
	<defs>
		<path id="SVGID_67_" d="M130.5,64.3c0-0.6,0.1-1,0.2-1.4c1.1,0.6,2.5,0.9,3.7,0.9c1.8,0,2.8-0.6,2.8-1.9c0-1.1-0.8-1.7-2.4-2.2
			l-1.1-0.4c-2.1-0.7-3.2-1.7-3.2-3.5c0-2.1,1.6-3.2,4.2-3.2c1.4,0,2.6,0.2,3.7,0.6c0,0.4-0.1,0.9-0.2,1.3c-1.1-0.4-2.2-0.6-3.4-0.6
			c-1.8,0-2.7,0.6-2.7,1.8c0,1.2,1,1.7,2.4,2.2l1.1,0.4c2.2,0.8,3.2,1.7,3.2,3.4c0,2.1-1.6,3.3-4.4,3.3
			C132.9,65.2,131.6,64.9,130.5,64.3"/>
	</defs>
	<clipPath id="SVGID_68_">
		<use xlink:href="#SVGID_67_"  style="overflow:visible;"/>
	</clipPath>
	<g class="st33">
		<defs>
			<rect id="SVGID_69_" x="-59.1" y="-12.3" width="1400" height="5181"/>
		</defs>
		<clipPath id="SVGID_70_">
			<use xlink:href="#SVGID_69_"  style="overflow:visible;"/>
		</clipPath>
		<rect x="125.5" y="47.7" class="st34" width="18.3" height="22.5"/>
	</g>
</g>
<g>
	<defs>
		<path id="SVGID_71_" d="M140.4,63.9c0-0.7,0.5-1.2,1.2-1.2c0.7,0,1.2,0.5,1.2,1.2c0,0.7-0.5,1.2-1.2,1.2
			C141,65.1,140.4,64.6,140.4,63.9"/>
	</defs>
	<clipPath id="SVGID_72_">
		<use xlink:href="#SVGID_71_"  style="overflow:visible;"/>
	</clipPath>
	<g class="st35">
		<defs>
			<rect id="SVGID_73_" x="-59.1" y="-12.3" width="1400" height="5181"/>
		</defs>
		<clipPath id="SVGID_74_">
			<use xlink:href="#SVGID_73_"  style="overflow:visible;"/>
		</clipPath>
		<rect x="135.4" y="57.7" class="st36" width="12.4" height="12.4"/>
	</g>
</g>
<g>
	<defs>
		<polygon id="SVGID_75_" points="50.5,42.6 47.2,37.9 50.5,33.2 53.8,37.9 		"/>
	</defs>
	<clipPath id="SVGID_76_">
		<use xlink:href="#SVGID_75_"  style="overflow:visible;"/>
	</clipPath>
	<g class="st37">
		<defs>
			<rect id="SVGID_77_" x="-59.1" y="-12.3" width="1400" height="5181"/>
		</defs>
		<clipPath id="SVGID_78_">
			<use xlink:href="#SVGID_77_"  style="overflow:visible;"/>
		</clipPath>
		<rect x="42.2" y="28.2" class="st38" width="16.6" height="19.4"/>
	</g>
</g>
</svg>
